<?xml version="1.0" encoding="UTF-8" standalone="no"?>
<!-- Created with Inkscape (http://www.inkscape.org/) -->

<svg
   xmlns:dc="http://purl.org/dc/elements/1.1/"
   xmlns:cc="http://creativecommons.org/ns#"
   xmlns:rdf="http://www.w3.org/1999/02/22-rdf-syntax-ns#"
   xmlns:svg="http://www.w3.org/2000/svg"
   xmlns="http://www.w3.org/2000/svg"
   xmlns:xlink="http://www.w3.org/1999/xlink"
   xmlns:sodipodi="http://sodipodi.sourceforge.net/DTD/sodipodi-0.dtd"
   xmlns:inkscape="http://www.inkscape.org/namespaces/inkscape"
   width="1920"
   height="1080"
   viewBox="0 0 508 285.75001"
   version="1.1"
   id="svg8"
   inkscape:version="0.92.4 (5da689c313, 2019-01-14)"
   sodipodi:docname="magni_wallpaper.svg"
   inkscape:export-filename="C:\Users\vidri\Desktop\pi_image_build-master\branding\magni_wallpaper.png"
   inkscape:export-xdpi="42.666668"
   inkscape:export-ydpi="42.666668">
  <defs
     id="defs2">
    <linearGradient
       inkscape:collect="always"
       id="linearGradient4692">
      <stop
         style="stop-color:#306491;stop-opacity:1"
         offset="0"
         id="stop4688" />
      <stop
         style="stop-color:#1b95ff;stop-opacity:1"
         offset="1"
         id="stop4690" />
    </linearGradient>
    <linearGradient
       inkscape:collect="always"
       xlink:href="#linearGradient4692"
       id="linearGradient4694"
       x1="202.68672"
       y1="383.35709"
       x2="305.12604"
       y2="-76.300415"
       gradientUnits="userSpaceOnUse"
       gradientTransform="matrix(0.92626865,0,0,0.83008179,7.426902,13.193935)" />
  </defs>
  <sodipodi:namedview
     id="base"
     pagecolor="#757575"
     bordercolor="#666666"
     borderopacity="1.0"
     inkscape:pageopacity="0"
     inkscape:pageshadow="2"
     inkscape:zoom="0.49497475"
     inkscape:cx="784.15643"
     inkscape:cy="674.57209"
     inkscape:document-units="mm"
     inkscape:current-layer="layer1"
     showgrid="false"
     inkscape:window-width="1920"
     inkscape:window-height="996"
     inkscape:window-x="-8"
     inkscape:window-y="-8"
     inkscape:window-maximized="1"
     showguides="false"
     units="px" />
  <metadata
     id="metadata5">
    <rdf:RDF>
      <cc:Work
         rdf:about="">
        <dc:format>image/svg+xml</dc:format>
        <dc:type
           rdf:resource="http://purl.org/dc/dcmitype/StillImage" />
        <dc:title></dc:title>
      </cc:Work>
    </rdf:RDF>
  </metadata>
  <g
     inkscape:label="Layer 1"
     inkscape:groupmode="layer"
     id="layer1"
     transform="translate(0,-11.249939)">
    <rect
       style="opacity:1;fill:url(#linearGradient4694);fill-opacity:1;stroke:none;stroke-width:0;stroke-linecap:round;stroke-linejoin:miter;stroke-miterlimit:4;stroke-dasharray:none;stroke-dashoffset:0;stroke-opacity:1;paint-order:normal"
       id="rect4686"
       width="508"
       height="285.75"
       x="0"
       y="11.249939"
       inkscape:export-xdpi="42.666668"
       inkscape:export-ydpi="42.666668" />
    <path
       id="path4682"
       style="fill:none;stroke:#ffffff;stroke-width:7;stroke-linecap:butt;stroke-linejoin:miter;stroke-miterlimit:4;stroke-dasharray:none;stroke-opacity:1"
       d="m -46.696377,61.589242 173.988267,0.15316 c 10.53964,0.25749 15.63919,7.125017 15.50556,14.990504 v 71.805914 c 0,18.13378 1.05854,31.84411 3.21344,41.13216 1.47054,6.2619 4.53158,12.27547 9.18104,18.02545 4.63763,5.67348 10.94664,10.31093 18.90338,13.92815 8.03931,3.54283 19.79219,5.30843 35.27155,5.30843 12.82648,0 23.2221,-1.62503 31.18381,-4.873 7.95674,-3.31929 14.29875,-7.7332 19.01763,-13.26536 4.79059,-5.52034 8.0746,-12.31209 9.8402,-20.34777 1.76618,-8.03934 2.66013,-21.77905 2.66013,-41.23916 V 73.377007 c -18.26556,0.01056 -36.53228,-0.019 -54.79901,-0.019 v 0.352853 c 8.48616,1.91639 17.06386,5.969513 22.06858,12.017793 v 45.626107 c -7.26905,7.24922 -17.64542,11.08989 -25.49507,12.29971 5.49668,3.20141 10.01665,6.73262 13.57016,10.56975 2.96626,3.15451 6.8152,8.4513 11.45265,15.64073 -1.36564,11.58216 -4.66108,21.3411 -14.11869,26.15879 l -16.22914,-24.1954 c -6.53273,-9.79311 -10.99375,-15.94324 -13.39849,-18.46202 -2.41294,-2.57776 -4.9554,-4.31988 -7.6508,-5.2497 -2.54246,-0.94221 -6.5562,-1.38853 -11.92473,-1.43621 v -20.11586 h 12.78396 c 12.19555,0 19.80973,-0.47111 22.84542,-1.5411 3.03682,-1.06047 5.41448,-2.80146 7.13296,-5.32045 1.7185,-2.51879 2.57773,-5.6733 2.57773,-9.4517 0,-4.23728 -1.17681,-7.6508 -3.43696,-10.21671 -2.23632,-2.636655 -5.41449,-4.296373 -9.5341,-4.97901 -2.05989,-0.23459 -8.23939,-0.471107 -18.55167,-0.471107 h -13.8139 V 50.807766 c 0,-4.667838 3.95707,-12.437818 14.15189,-12.437818 l 137.74244,-0.250536 c 7.89198,0.01552 10.09553,3.960871 10.11649,7.874148 l 1.34545,46.492225 c -3.87444,48.046165 -33.92368,97.995105 6.04629,98.074165 l 52.0187,-0.13206"
       inkscape:connector-curvature="0"
       sodipodi:nodetypes="cccscccscccsccccccccccccccsccsccscscccccc" />
    <path
       sodipodi:nodetypes="ssssssssssssssssss"
       inkscape:connector-curvature="0"
       id="path884"
       d="m 490.75107,230.45766 c 0.003,1.24623 -0.99801,2.25178 -2.24425,2.25466 l -40.33805,0.0933 c -1.24624,0.003 -2.25218,-0.99801 -2.25506,-2.24425 l -0.0162,-7.00421 c -0.003,-1.24623 0.99841,-2.25178 2.24465,-2.25466 l 40.33805,-0.0933 c 1.24624,-0.003 2.25178,0.99801 2.25466,2.24425 z m -11.88103,4.68618 c -0.057,0.67685 -0.54407,1.22702 -1.22332,1.22859 l -18.2262,0.0422 c -0.67925,0.002 -1.22741,-0.54368 -1.22898,-1.22292 l -0.003,-1.09092 c -0.002,-0.67924 -1.32225,-1.32517 -0.64301,-1.32693 l 21.84562,-0.0566 c 0.67924,-0.002 -0.35374,0.43319 -0.41602,1.17289 z"
       style="opacity:1;fill:none;fill-opacity:1;stroke:#ffffff;stroke-width:2.5;stroke-linejoin:miter;stroke-miterlimit:4;stroke-dasharray:none;stroke-opacity:1;paint-order:markers fill stroke" />
    <path
       style="opacity:1;fill:none;fill-opacity:1;stroke:#ffffff;stroke-width:9.44881916;stroke-linejoin:miter;stroke-miterlimit:4;stroke-dasharray:none;stroke-opacity:1;paint-order:markers fill stroke"
       d="M 1509.3223 511.41406 L 1490.6113 511.45703 C 1487.7209 511.46459 1485.3996 513.79519 1485.4062 516.68555 L 1485.4414 531.75781 C 1485.449 534.64821 1487.7795 536.96958 1490.6699 536.96289 L 1509.3223 536.91992 L 1509.3223 511.41406 z "
       transform="matrix(0.26458333,0,0,0.26458333,0,11.249939)"
       id="rect849" />
    <path
       style="opacity:1;fill:none;fill-opacity:1;stroke:#ffffff;stroke-width:9.44881916;stroke-linejoin:miter;stroke-miterlimit:4;stroke-dasharray:none;stroke-opacity:1;paint-order:markers fill stroke"
       d="M 1511.0547 811.20898 L 1489.6934 811.25781 C 1486.803 811.26537 1484.4796 813.59789 1484.4863 816.48828 L 1484.5215 831.56055 C 1484.529 834.45086 1486.8596 836.77231 1489.75 836.76562 L 1511.0547 836.71484 L 1511.0547 811.20898 z "
       transform="matrix(0.26458333,0,0,0.26458333,0,11.249939)"
       id="rect851" />
    <path
       sodipodi:nodetypes="ccccc"
       style="opacity:1;fill:none;fill-opacity:1;stroke:#ffffff;stroke-width:2.5;stroke-linejoin:miter;stroke-miterlimit:4;stroke-dasharray:none;stroke-opacity:1;paint-order:markers fill stroke"
       d="m 399.9768,221.11442 0.037,16.00234 17.79174,-0.0412 -0.037,-16.00235 z"
       id="rect1125"
       inkscape:connector-curvature="0" />
    <path
       style="opacity:1;fill:none;fill-opacity:1;stroke:#ffffff;stroke-width:2.5;stroke-linejoin:miter;stroke-miterlimit:4;stroke-dasharray:none;stroke-opacity:1;paint-order:markers fill stroke"
       d="m 491.28242,148.6376 c -0.003,-1.24624 -1.00842,-2.24714 -2.25466,-2.24425 l -40.33805,0.0933 c -1.24625,0.003 -2.24754,1.00843 -2.24466,2.25467 l 0.0162,7.0042 c 0.003,1.24624 1.00882,2.24714 2.25506,2.24426 l 40.33805,-0.0933 c 1.24624,-0.003 2.24714,-1.00843 2.24426,-2.25467 z m -11.90259,-4.63115 c -0.0601,-0.67657 -0.54974,-1.22449 -1.22899,-1.22291 l -18.2262,0.0422 c -0.67924,0.002 -1.22489,0.54935 -1.22331,1.22859 l 0.003,1.09092 c 0.002,0.67924 -1.3161,1.33127 -0.63686,1.32989 l 21.84564,-0.0443 c 0.67924,-10e-4 -0.35575,-0.43154 -0.42145,-1.17096 z"
       id="rect1138"
       inkscape:connector-curvature="0"
       sodipodi:nodetypes="ssssssssssssssssss" />
    <path
       sodipodi:nodetypes="ccccc"
       style="opacity:1;fill:none;fill-opacity:1;stroke:#ffffff;stroke-width:2.5;stroke-linejoin:miter;stroke-miterlimit:4;stroke-dasharray:none;stroke-opacity:1;paint-order:markers fill stroke"
       d="m 399.79998,142.04865 0.037,16.00235 17.79174,-0.0412 -0.037,-16.00234 z"
       id="rect1127"
       inkscape:connector-curvature="0" />
    <path
       style="opacity:1;fill:none;fill-opacity:1;stroke:#ffffff;stroke-width:2.5;stroke-linejoin:miter;stroke-miterlimit:4;stroke-dasharray:none;stroke-opacity:1;paint-order:markers fill stroke"
       d="m 480.68419,165.21569 0.11237,48.56942 8.02674,-0.0186 -0.11238,-48.56943 z"
       id="rect1129"
       inkscape:connector-curvature="0" />
    <path
       style="opacity:1;fill:none;fill-opacity:1;stroke:#ffffff;stroke-width:2.5;stroke-linejoin:miter;stroke-miterlimit:4;stroke-dasharray:none;stroke-opacity:1;paint-order:markers fill stroke"
       d="m 396.73623,165.11075 0.11363,49.11116 c 0.008,3.59711 2.91088,6.48627 6.50799,6.47795 l 71.05561,-0.16441 c 3.59709,-0.008 6.48626,-2.91088 6.47794,-6.50799 l -0.11363,-49.11116 c -0.008,-3.5971 -2.91089,-6.48627 -6.50799,-6.47794 l -71.05561,0.1644 c -3.5971,0.008 -6.48627,2.91089 -6.47794,6.50799 z"
       id="rect1123"
       inkscape:connector-curvature="0" />
    <path
       sodipodi:nodetypes="ccccc"
       style="opacity:1;fill:none;fill-opacity:1;stroke:#ffffff;stroke-width:2.5;stroke-linecap:butt;stroke-linejoin:miter;stroke-miterlimit:4;stroke-dasharray:none;stroke-opacity:1;paint-order:markers fill stroke"
       d="m 488.71092,165.19711 -6.35408,-6.24823 c 0,0 -4.93735,-0.0405 -5.82127,-0.0693 0,0 3.88148,1.79324 4.14862,6.33608 1.99161,0.12557 8.02673,-0.0186 8.02673,-0.0186"
       id="path1131"
       inkscape:connector-curvature="0" />
    <path
       inkscape:connector-curvature="0"
       id="path1136"
       d="m 488.82329,213.76669 c -1.2,1.52145 -6.58104,6.13757 -6.58104,6.13757 l -5.59053,0.22333 c 0,0 3.89873,-1.79845 4.14484,-6.34248 1.99101,-0.13478 8.02673,-0.0186 8.02673,-0.0186"
       style="opacity:1;fill:none;fill-opacity:1;stroke:#ffffff;stroke-width:2.5;stroke-linecap:butt;stroke-linejoin:miter;stroke-miterlimit:4;stroke-dasharray:none;stroke-opacity:1;paint-order:markers fill stroke"
       sodipodi:nodetypes="ccccc" />
    <circle
       style="opacity:1;fill:none;fill-opacity:1;stroke:#ffffff;stroke-width:2.5;stroke-linejoin:miter;stroke-miterlimit:4;stroke-dasharray:none;stroke-opacity:1;paint-order:markers fill stroke"
       id="path870"
       cx="152.38611"
       cy="-408.11774"
       r="1.3292719"
       transform="rotate(89.867432)" />
    <circle
       cy="-408.19006"
       cx="229.09944"
       id="circle872"
       style="opacity:1;fill:none;fill-opacity:1;stroke:#ffffff;stroke-width:2.5;stroke-linejoin:miter;stroke-miterlimit:4;stroke-dasharray:none;stroke-opacity:1;paint-order:markers fill stroke"
       r="1.3292719"
       transform="rotate(89.867432)" />
    <circle
       cy="-466.40118"
       cx="169.57262"
       id="circle886"
       style="opacity:1;fill:none;fill-opacity:1;stroke:#ffffff;stroke-width:2.5;stroke-linejoin:miter;stroke-miterlimit:4;stroke-dasharray:none;stroke-opacity:1;paint-order:markers fill stroke"
       r="1.3292719"
       transform="rotate(89.867432)" />
    <circle
       style="opacity:1;fill:none;fill-opacity:1;stroke:#ffffff;stroke-width:2.5;stroke-linejoin:miter;stroke-miterlimit:4;stroke-dasharray:none;stroke-opacity:1;paint-order:markers fill stroke"
       id="circle888"
       cx="190.52597"
       cy="-466.40118"
       r="1.3292719"
       transform="rotate(89.867432)" />
    <circle
       cy="-466.40118"
       cx="210.65309"
       id="circle890"
       style="opacity:1;fill:none;fill-opacity:1;stroke:#ffffff;stroke-width:2.5;stroke-linejoin:miter;stroke-miterlimit:4;stroke-dasharray:none;stroke-opacity:1;paint-order:markers fill stroke"
       r="1.3292719"
       transform="rotate(89.867432)" />
    <circle
       style="opacity:1;fill:none;fill-opacity:1;stroke:#ffffff;stroke-width:2.5;stroke-linejoin:miter;stroke-miterlimit:4;stroke-dasharray:none;stroke-opacity:1;paint-order:markers fill stroke"
       id="circle892"
       cx="190.52597"
       cy="-405.79889"
       r="1.3292719"
       transform="rotate(89.867432)" />
    <circle
       cy="-405.79889"
       cx="169.57262"
       id="circle894"
       style="opacity:1;fill:none;fill-opacity:1;stroke:#ffffff;stroke-width:2.5;stroke-linejoin:miter;stroke-miterlimit:4;stroke-dasharray:none;stroke-opacity:1;paint-order:markers fill stroke"
       r="1.3292719"
       transform="rotate(89.867432)" />
    <circle
       style="opacity:1;fill:none;fill-opacity:1;stroke:#ffffff;stroke-width:2.5;stroke-linejoin:miter;stroke-miterlimit:4;stroke-dasharray:none;stroke-opacity:1;paint-order:markers fill stroke"
       id="circle896"
       cx="210.65309"
       cy="-405.79889"
       r="1.3292719"
       transform="rotate(89.867432)" />
    <text
       xml:space="preserve"
       style="font-style:normal;font-weight:normal;font-size:10.58333302px;line-height:1.25;font-family:sans-serif;letter-spacing:0px;word-spacing:0px;fill:#ffffff;fill-opacity:1;stroke:none;stroke-width:0.26458332"
       x="155.4055"
       y="265.70923"
       id="text4704"><tspan
         sodipodi:role="line"
         id="tspan4702"
         x="155.4055"
         y="265.70923"
         style="font-style:italic;font-variant:normal;font-weight:bold;font-stretch:normal;font-size:19.75555611px;font-family:sans-serif;-inkscape-font-specification:'sans-serif Bold Italic';fill:#ffffff;stroke-width:0.26458332">Ubiquity Robotics</tspan></text>
    <path
       style="fill:none;fill-rule:evenodd;stroke:#ffffff;stroke-width:3;stroke-linecap:butt;stroke-linejoin:miter;stroke-miterlimit:4;stroke-dasharray:none;stroke-opacity:1"
       d="m 128.82496,257.68128 18.82209,-0.0316"
       id="path4708"
       inkscape:connector-type="polyline"
       inkscape:connector-curvature="0" />
    <path
       inkscape:connector-curvature="0"
       inkscape:connector-type="polyline"
       id="path4710"
       d="m 357.87853,259.0042 18.82209,-0.0316"
       style="fill:none;fill-rule:evenodd;stroke:#ffffff;stroke-width:3;stroke-linecap:butt;stroke-linejoin:miter;stroke-miterlimit:4;stroke-dasharray:none;stroke-opacity:1" />
  </g>
</svg>
